<svg xmlns="http://www.w3.org/2000/svg" xmlns:xlink="http://www.w3.org/1999/xlink" width="142.137" height="140.947" viewBox="0 0 142.137 140.947">
  <defs>
    <linearGradient id="linear-gradient" x1="0.5" x2="0.5" y2="1" gradientUnits="objectBoundingBox">
      <stop offset="0" stop-color="#f17e63"/>
      <stop offset="1" stop-color="#e21c26"/>
    </linearGradient>
  </defs>
  <g id="Group_2" data-name="Group 2" transform="translate(-409.5 -388.498)">
    <g id="Group_1" data-name="Group 1" transform="translate(-18 -153)">
      <path id="Path_3" data-name="Path 3" d="M120.055.726a1.589,1.589,0,0,0-2.668,0C116.5,2.306,95.8,39.529,95.8,50.362a22.917,22.917,0,1,0,45.835,0C141.637,39.529,120.935,2.306,120.055.726Z" transform="translate(379.724 575.321)" stroke="#ea272e" stroke-width="5" fill="url(#linear-gradient)"/>
      <path id="Path_1" data-name="Path 1" d="M147-218.6c-21.7,4.9-41,21.2-49.7,42.1C94.4-169.8,92-157.4,92-150c0,30.7,23.2,60.8,52.7,68.4,13.3,3.5,32.4,1.2,45.8-5.3,13-6.4,13.5-10.5,1-7.8-11.4,2.5-20.4,3.1-28,1.8-7.4-1.3-15.9-5.1-16.8-7.6-1.8-4.5,3.3-6.6,14.8-6.3,6.8.3,8,.1,8.3-1.4.2-1.1-.8-2.3-2.7-3.3-4.2-2.1-18.2-3.8-25.6-3-7.1.8-17.3-.8-22.8-3.7a37.94,37.94,0,0,1-15.4-15.6c-2.2-4.5-2.8-7.3-3.1-14.7-.8-17.5,5.1-32,18.2-45,13.1-13.1,26.6-18.8,44.1-18.8,36.3,0,64.5,30,64.5,68.8,0,11.8-2.2,22-7,31.6-2.9,6.1-2.9,6.2-.5,3.4a78.737,78.737,0,0,0,6-10c9.8-20,9.9-42,0-62-9.6-19.5-25.2-32.2-45.9-37.5C170.5-220.3,155.9-220.5,147-218.6Z" transform="translate(336 761.889)" fill="#e82930" stroke="#fffcfc" stroke-width="1"/>
    </g>
  </g>
</svg>
